<svg height="114" viewBox="0 0 446 114" width="446" xmlns="http://www.w3.org/2000/svg"><g fill="none" fill-rule="evenodd"><g fill="#040e19"><path d="m.519 113.208h5.392v-31.627h-5.392z"/><path d="m43.655 113.208-.431-18.942-9.965 15.102h-.647l-10.052-15.145-.344 18.985h-5.306l1.337-32.015.819-.086 14.021 20.969 13.674-20.969.864.086 1.337 32.015z"/><path d="m80.362 113.208-3.063-7.248h-12.511l-3.062 7.248h-5.565l14.58-32.059h.778l14.538 32.059zm-9.318-22.091-4.487 10.571h8.973z"/><path d="m121.167 96.466v13.808c-3.364 2.2-7.031 3.452-11.776 3.452-9.016 0-16.781-6.559-16.781-16.31 0-9.838 7.894-16.353 16.781-16.353 4.659 0 7.981 1.295 11.216 3.28l-2.459 4.313c-2.545-1.638-5.564-2.631-8.498-2.631-7.205 0-11.259 5.092-11.259 11.391 0 6.73 4.96 11.52 11.215 11.52 2.718 0 4.53-.474 6.385-1.51v-6.214h-7.377v-4.746z"/><path d="m131.647 113.208h5.392v-31.627h-5.392z"/><path d="m173.662 113.812-19.801-20.884v20.28h-5.392v-32.059l.863-.172 19.542 20.581v-19.977h5.391v32.101z"/><path d="m206.097 113.208-3.062-7.248h-12.51l-3.063 7.248h-5.565l14.581-32.059h.776l14.538 32.059zm-9.317-22.091-4.487 10.571h8.974z"/><path d="m236.594 113.208-6.902-11.391c-.561.044-1.079.044-1.684.044-1.034 0-2.113-.044-3.148-.087v11.434h-5.392v-31.325c2.501-.302 5.133-.518 8.326-.518 8.972 0 12.941 4.358 12.941 9.967 0 4.099-2.243 7.422-6.169 9.147l8.283 12.729zm-8.111-27.01c-1.294 0-2.544.042-3.623.259v10.787c.992.129 2.071.172 3.106.172 4.701 0 7.074-2.2 7.074-5.825 0-3.193-2.416-5.393-6.557-5.393z"/><path d="m264.76 99.919v13.289h-5.393v-13.333l-11.129-18.294h6.169l7.765 13.375 7.679-13.375h6.039z"/><path d="m300.61 112.593c-8.499 0-16.306-5.782-16.306-16.051 0-10.398 7.893-16.439 16.349-16.439 4.917 0 8.326 1.596 11.561 3.927l-.733 1.121c-3.107-2.243-6.299-3.753-10.828-3.796-7.506 0-14.883 5.479-14.883 15.144 0 9.622 7.333 14.843 14.883 14.843 4.442 0 7.635-1.51 10.742-3.624l.646 1.035c-3.192 2.243-6.514 3.84-11.431 3.84z"/><path d="m321.916 112.248v-31.627h1.423v30.375h15.789v1.252z"/><path d="m360.781 112.593c-8.843 0-15.529-6.904-15.529-16.137 0-9.234 6.686-16.223 15.529-16.223s15.53 6.989 15.53 16.223c0 9.233-6.687 16.137-15.53 16.137zm0-31.109c-8.154 0-14.063 6.516-14.063 14.972 0 8.457 5.909 14.886 14.063 14.886 8.153 0 14.064-6.429 14.064-14.886 0-8.456-5.911-14.972-14.064-14.972z"/><path d="m397.703 112.593c-7.462 0-11.646-4.229-11.646-11.909v-20.063h1.424v20.193c0 6.644 3.839 10.485 10.222 10.485 6.385 0 10.311-3.97 10.311-10.485v-20.193h1.424v20.063c0 7.508-4.53 11.909-11.735 11.909z"/><path d="m427.723 112.593c-2.803 0-5.693-.259-7.161-.474v-31.369c1.468-.216 4.358-.474 7.161-.474 11.648 0 17.903 7.81 17.903 15.877 0 8.933-6.255 16.44-17.903 16.44zm-.215-31.066c-2.157 0-4.185.172-5.522.346v29.123c1.337.173 3.365.346 5.522.346 10.784 0 16.652-6.645 16.652-15.189 0-7.722-5.91-14.626-16.652-14.626z"/></g><path d="m344.167 63.181h-57.14v-31.795c0-17.186 14.903-31.169 33.221-31.169h23.919c18.319 0 33.222 13.983 33.222 31.169v.628c0 17.186-14.903 31.167-33.222 31.167zm-51.783-5.358h51.783c15.365 0 27.866-11.579 27.866-25.809v-.628c0-14.231-12.501-25.81-27.866-25.81h-23.919c-15.364 0-27.864 11.579-27.864 25.81z" fill="#0081ff"/></g></svg>